<svg width="193" height="686" viewBox="0 0 193 686" fill="none" xmlns="http://www.w3.org/2000/svg">
<path d="M8.39167 670.978C-0.00918944 655.614 -1.69284 644.63 2.02491 619.74C20.5038 556.45 19.8245 519.411 8.39166 452.051C7.5214 435.714 2.77293 432.188 2.0249 394.602C1.27687 357.016 -1.42071 359.744 8.39166 278.151C18.204 196.559 50.171 148.858 56.1425 56.1185L49.7757 48.3552C52.5392 36.641 53.7958 32.0627 55.9176 24.3318L56.1425 23.5123C57.1601 19.7978 56.7583 17.2452 52.9591 11.0909C53.7271 6.55938 55.9203 4.1065 62.5092 0.222226L129.36 0.222223C135.453 2.68017 137.415 5.0631 138.91 11.0909C134.879 20.006 134.077 24.8722 138.91 32.8284L142.094 48.3552C137.656 54.1241 136.837 57.5121 138.91 63.882C135.933 100.317 139.312 118.228 150.052 147.726L183.478 261.072C184.722 267.106 183.976 268.415 183.478 271.941C183.376 274.949 183.699 276.245 183.478 278.151C191.269 320.655 192.417 344.517 189.844 386.839C190.997 389.634 189.368 390.913 191.159 394.602C181.427 447.62 176.331 476.673 177.111 534.343C174.759 562.149 177.199 580.68 189.844 619.74C194.523 639.112 194.422 649.389 186.661 666.32C176.723 677.548 163.355 681.362 127.768 684.952C90.3824 687.001 69.856 685.792 33.8587 680.294L8.39167 670.978Z" fill="url(#paint0_linear)"/>
<g filter="url(#filter0_i)">
<path d="M82.3954 582.858C87.019 578.308 87.019 570.928 82.3954 566.378C77.7718 561.827 70.273 561.827 65.6494 566.378C61.0257 570.928 61.0257 578.308 65.6494 582.858C70.2748 587.41 77.7718 587.41 82.3954 582.858ZM129.76 612.991C125.137 608.441 117.638 608.441 113.014 612.991C108.391 617.542 108.391 624.922 113.014 629.472C117.638 634.022 125.137 634.022 129.76 629.472C134.386 624.922 134.386 617.544 129.76 612.991ZM129.401 570.851L125.216 566.733C122.903 564.457 119.155 564.457 116.844 566.733L66.0101 616.761C63.6974 619.037 63.6974 622.726 66.0101 625L70.1953 629.119C72.508 631.395 76.2565 631.395 78.5674 629.119L129.401 579.091C131.714 576.817 131.714 573.127 129.401 570.851Z" fill="#F1F1F1"/>
</g>
<g filter="url(#filter1_i)">
<path d="M123.07 113.196C122.307 111.489 120.127 111.421 119.214 113.032C114.99 120.392 107.427 124.98 98.7877 124.98H87.8865C73.4423 124.98 61.7235 136.723 61.7235 151.196C61.7235 152.152 61.8325 153.067 61.9279 153.996C70.6216 147.756 83.1717 142.458 100.968 142.458C102.167 142.458 103.148 143.441 103.148 144.642C103.148 145.844 102.167 146.827 100.968 146.827C66.7108 146.827 52.1849 167.868 48.969 175.774C48.0696 178 49.1325 180.54 51.3536 181.455C53.5884 182.383 56.1229 181.304 57.0495 179.092C57.2539 178.601 59.8975 172.552 66.847 166.722C71.2621 172.716 79.656 178.437 90.6799 177.263C112.074 175.706 127.131 156.481 127.131 132.941C127.131 126.086 125.659 118.986 123.07 113.196Z" fill="#F1F1F1"/>
</g>
<g filter="url(#filter2_i)">
<path d="M138.375 385.487H136.19V370.724C136.19 368.99 135.494 367.324 134.265 366.095L120.622 352.452C119.393 351.223 117.727 350.527 115.993 350.527H109.97V343.972C109.97 340.353 107.034 337.417 103.415 337.417H59.7152C56.0962 337.417 53.1602 340.353 53.1602 343.972V387.672C53.1602 391.291 56.0962 394.227 59.7152 394.227H61.9001C61.9001 401.464 67.7723 407.337 75.0101 407.337C82.2479 407.337 88.1201 401.464 88.1201 394.227H105.6C105.6 401.464 111.472 407.337 118.71 407.337C125.948 407.337 131.82 401.464 131.82 394.227H138.375C139.577 394.227 140.56 393.243 140.56 392.042V387.672C140.56 386.47 139.577 385.487 138.375 385.487ZM75.0101 400.782C71.3912 400.782 68.4551 397.846 68.4551 394.227C68.4551 390.608 71.3912 387.672 75.0101 387.672C78.629 387.672 81.5651 390.608 81.5651 394.227C81.5651 397.846 78.629 400.782 75.0101 400.782ZM118.71 400.782C115.091 400.782 112.155 397.846 112.155 394.227C112.155 390.608 115.091 387.672 118.71 387.672C122.329 387.672 125.265 390.608 125.265 394.227C125.265 397.846 122.329 400.782 118.71 400.782ZM129.635 372.377H109.97V357.082H115.993L129.635 370.724V372.377Z" fill="#F1F1F1"/>
</g>
<defs>
<filter id="filter0_i" x="62.1816" y="562.965" width="71.0477" height="73.9199" filterUnits="userSpaceOnUse" color-interpolation-filters="sRGB">
<feFlood flood-opacity="0" result="BackgroundImageFix"/>
<feBlend mode="normal" in="SourceGraphic" in2="BackgroundImageFix" result="shape"/>
<feColorMatrix in="SourceAlpha" type="matrix" values="0 0 0 0 0 0 0 0 0 0 0 0 0 0 0 0 0 0 127 0" result="hardAlpha"/>
<feOffset dy="4"/>
<feGaussianBlur stdDeviation="4.5"/>
<feComposite in2="hardAlpha" operator="arithmetic" k2="-1" k3="1"/>
<feColorMatrix type="matrix" values="0 0 0 0 0 0 0 0 0 0 0 0 0 0 0 0 0 0 0.34 0"/>
<feBlend mode="normal" in2="shape" result="effect1_innerShadow"/>
</filter>
<filter id="filter1_i" x="48.6494" y="111.869" width="78.4816" height="73.9199" filterUnits="userSpaceOnUse" color-interpolation-filters="sRGB">
<feFlood flood-opacity="0" result="BackgroundImageFix"/>
<feBlend mode="normal" in="SourceGraphic" in2="BackgroundImageFix" result="shape"/>
<feColorMatrix in="SourceAlpha" type="matrix" values="0 0 0 0 0 0 0 0 0 0 0 0 0 0 0 0 0 0 127 0" result="hardAlpha"/>
<feOffset dy="4"/>
<feGaussianBlur stdDeviation="4.5"/>
<feComposite in2="hardAlpha" operator="arithmetic" k2="-1" k3="1"/>
<feColorMatrix type="matrix" values="0 0 0 0 0 0 0 0 0 0 0 0 0 0 0 0 0 0 0.34 0"/>
<feBlend mode="normal" in2="shape" result="effect1_innerShadow"/>
</filter>
<filter id="filter2_i" x="53.1602" y="337.417" width="87.3999" height="73.9199" filterUnits="userSpaceOnUse" color-interpolation-filters="sRGB">
<feFlood flood-opacity="0" result="BackgroundImageFix"/>
<feBlend mode="normal" in="SourceGraphic" in2="BackgroundImageFix" result="shape"/>
<feColorMatrix in="SourceAlpha" type="matrix" values="0 0 0 0 0 0 0 0 0 0 0 0 0 0 0 0 0 0 127 0" result="hardAlpha"/>
<feOffset dy="4"/>
<feGaussianBlur stdDeviation="4.5"/>
<feComposite in2="hardAlpha" operator="arithmetic" k2="-1" k3="1"/>
<feColorMatrix type="matrix" values="0 0 0 0 0 0 0 0 0 0 0 0 0 0 0 0 0 0 0.34 0"/>
<feBlend mode="normal" in2="shape" result="effect1_innerShadow"/>
</filter>
<linearGradient id="paint0_linear" x1="0.156235" y1="343.055" x2="193" y2="343.055" gradientUnits="userSpaceOnUse">
<stop stop-color="#BB0612"/>
<stop offset="1" stop-color="#E61A27"/>
</linearGradient>
</defs>
</svg>
