<svg width="120" height="40" viewBox="0 0 120 40" fill="none" xmlns="http://www.w3.org/2000/svg">
<path d="M46.0813 34.2765C41.6161 31.4001 35.5562 30.8953 25.7834 33.6067C15.3648 36.055 11.8911 37.6245 7.32919 34.4739C5.57659 32.9262 4.94824 30.4342 5.41744 26.8447C6.50569 20.9932 9.44659 15.3621 14.6705 9.11577C17.5862 5.86646 20.291 3.07796 23.8624 1.95821C26.5996 1.25576 26.3437 3.40691 26.0125 3.71456C25.663 3.71456 25.0759 3.76961 24.6221 4.06571C24.2539 4.35131 23.243 5.27351 23.1887 6.51401C23.1104 8.41302 25.0756 8.01777 25.9232 6.97511C26.8369 5.80016 28.1872 3.55016 27.125 1.45316C26.6798 0.706759 25.9106 0.190908 24.9556 0.0152581C21.6853 -0.171642 18.6397 1.38731 15.8286 3.11081C9.68134 7.38117 4.76389 13.2984 1.98139 19.7754C0.377285 23.6833 -1.07352 29.2813 1.10104 33.8376C2.78344 36.999 6.27589 38.6782 10.4427 38.3271C13.3652 38.02 16.899 37.0755 19.2758 36.5052C21.6527 35.9338 33.8189 31.7518 37.8164 39.0306C37.8164 39.0306 39.1457 36.4501 42.4678 36.3951C45.199 36.1431 49.1392 37.1857 52.0084 39.2931C51.0524 37.8555 48.3422 35.7367 46.0813 34.2765Z" fill="#F1F1F1"/>
<path d="M27.0232 9.85119C24.7477 8.35824 20.1742 11.2124 16.511 16.1083C13.1612 20.4999 11.7148 25.6039 13.289 27.9642C15.6305 30.7414 19.9777 26.7018 21.8263 24.5395L22.0648 24.2868C23.3219 22.9365 24.293 21.3116 25.2332 19.7525C25.2332 19.7525 26.0972 18.3254 26.1385 18.2594C26.6725 18.161 27.3157 18.0073 28.0405 17.7986C28.0301 17.8313 25.2674 22.4751 25.5493 24.78C25.637 25.4832 25.5701 28.0519 28.078 28.8312C31.4206 29.3914 34.0897 26.8003 36.4444 24.495C36.4444 24.495 36.8456 24.1111 37.0726 23.892C37.0151 24.1218 36.9403 24.4285 36.9403 24.4285C35.9617 27.8317 37.2808 28.5459 38.1059 28.8093C40.5997 29.5344 43.5788 25.9114 43.5886 25.9114C43.5112 27.0526 43.2854 27.9966 44.4884 28.7542C45.6238 29.1607 46.7729 28.5409 47.6465 27.9591C50.7928 25.7418 53.3275 22.2711 55.3747 19.2712H54.0688C54.0534 19.2712 50.8465 23.9194 48.764 24.9297C48.7607 24.9297 48.3817 25.1242 48.1635 24.9703C47.893 24.7398 47.9996 24.2602 48.1666 23.9206C48.1771 23.8986 56.2072 9.97119 56.2072 9.97119H52.4158C52.4158 9.97119 52.0017 10.6412 51.9679 10.6852C51.9424 10.6633 51.8817 10.5481 51.8397 10.4929C49.4907 7.24359 44.1712 12.2416 40.1663 18.0376C38.6245 20.2663 36.6614 22.7757 34.6259 24.5869C34.6259 24.5869 31.6103 27.3511 30.322 25.3651C29.851 24.5307 29.9959 23.3107 30.2615 22.5096C31.7617 18.239 34.3466 14.3635 37.2883 12.0251C38.1185 11.3779 39.0212 11.1907 39.469 11.4652C39.8959 11.7181 39.9647 12.3433 39.6947 12.7715C39.0097 12.7496 38.4607 12.9578 38.0146 13.4189C37.1356 14.3411 36.8302 15.2305 37.1096 16.0649C38.4673 17.9969 41.1749 14.1766 41.044 11.8493C40.9972 11.0149 40.5521 10.2247 39.8876 9.84009C38.8975 9.24759 37.387 9.40104 36.4094 9.87339C35.1007 10.3672 33.0293 12.0905 31.8202 13.43C30.298 15.1099 27.6872 16.9759 26.8709 16.7669C27.1378 16.0532 29.3429 11.5415 27.0232 9.85119ZM45.3023 16.5256C46.0399 15.5048 48.1866 12.7712 48.7099 12.3103C50.47 10.7618 51.1735 11.4431 51.2344 11.9258C49.5918 14.8678 47.653 18.2381 45.8302 21.2682C45.834 21.2574 45.2597 22.1353 45.2597 22.1353C44.4547 23.3644 43.6441 24.4185 42.3218 25.1538C42.1333 25.2091 41.8225 25.2312 41.6156 25.0768C41.3666 24.9121 41.2684 24.6376 41.2964 24.3522C41.3758 23.4084 42.3367 20.5217 45.3023 16.5256ZM24.6766 18.2929C24.6766 18.2929 24.6434 18.392 24.6272 18.4244C24.623 18.4244 22.9741 21.1137 22.9741 21.1137C21.979 22.4422 20.7365 24.1113 19.1834 24.9123C18.7231 25.0659 18.0866 25.165 17.7623 24.7591C17.0749 23.9356 17.4292 22.7938 17.717 21.8719L17.819 21.5425C18.6443 19.3033 19.9537 17.3269 21.2284 15.4936C21.2443 15.4828 21.28 15.4718 21.2929 15.4718C21.296 15.4828 21.3011 15.4828 21.3032 15.5048C22.103 17.0414 23.6027 17.7547 24.7243 18.0845C24.731 18.0845 24.7384 18.0955 24.7384 18.1175C24.7385 18.1502 24.7202 18.1945 24.6766 18.2929ZM26.2387 15.1207C26.2313 15.1426 25.5043 16.8112 25.5043 16.8112C25.3991 16.8989 25.2329 16.8551 25.0424 16.8112L24.716 16.756C23.6911 16.4378 22.918 15.7571 22.6796 14.9449C22.351 13.364 23.7014 12.1235 24.2963 11.6737C24.8672 11.2781 25.7548 11.0696 26.2702 11.476C26.588 11.8493 26.7085 12.3322 26.7085 12.8594C26.7086 13.5727 26.4884 14.374 26.2387 15.1207ZM74.1697 20.2139C73.804 19.4237 72.9363 18.9187 72.0114 18.9734C69.0079 19.2481 66.0702 21.718 64.5276 25.2636C63.7182 27.0861 63.2764 28.5898 62.9868 30.9829C63.9208 29.9074 65.8258 28.1401 67.9876 27.174C67.9876 27.174 68.2818 24.8797 69.7818 22.8378C70.3494 21.9922 71.4852 20.6311 72.7606 20.9932C73.8751 21.3665 73.4833 24.4515 72.0022 27.4368C70.9063 29.6326 69.2293 31.8288 67.5325 33.3433C66.0324 34.6167 63.8128 36.1536 61.8709 34.9681C60.6478 34.2439 60.024 32.7285 60.1557 30.7746C60.7401 25.231 63.2637 20.5105 66.8749 15.1315C70.5985 10.1366 74.7031 5.01009 80.2326 2.27618C81.3604 1.70543 82.4049 1.57373 83.3077 1.92503C83.3077 1.92503 78.1171 4.77924 75.6429 10.0597C75.0135 11.3992 74.1381 13.21 75.0196 14.8129C75.4803 15.647 76.2981 15.713 76.9567 15.6691C79.9896 14.9663 81.949 12.1342 83.55 9.54369C84.4782 7.57869 85.3032 5.62464 85.3032 3.45098C85.3032 3.18758 85.2895 2.83643 85.2673 2.57273C86.7162 1.80458 89.6875 3.16553 89.6875 3.16553C92.0094 3.93428 96.9533 7.72179 98.621 8.44599C99.4344 7.50204 100.771 6.07509 101.524 5.36139L100.434 4.69164C98.6898 3.62678 96.8458 2.61668 95.031 1.61783C90.9091 -0.63232 87.5539 0.157881 85.8465 0.772732C85.1754 1.01408 84.5622 1.22273 84.5622 1.22273C83.295 -0.160419 81.2166 -0.0290192 79.6852 0.344481C74.1781 1.92518 69.0651 5.77824 63.5833 12.4639C59.5531 17.7004 57.0532 22.2234 55.7208 26.6911C54.6937 29.6989 54.3816 34.1229 56.8884 36.7467C59.0197 38.9746 61.8459 38.4919 63.8415 37.6909C68.1655 35.5612 72.0519 30.9723 73.9884 25.6918C74.4558 24.1222 74.9743 21.9048 74.1697 20.2139ZM84.1128 3.67073C83.5404 10.2355 78.4375 14.089 77.1748 14.3959C76.4097 14.5493 75.1041 14.2093 76.2697 11.4542C77.986 7.74339 80.9166 4.59309 84.0606 2.97923C84.1372 3.25373 84.1351 3.42893 84.1128 3.67073ZM114.383 4.50473C111.638 6.06384 108.792 7.07349 105.348 6.72234C104.393 7.79844 103.464 8.90709 102.607 10.0486C107.442 11.2781 112.567 8.54469 115.425 5.94324C118.449 3.31943 119.999 0.0153809 119.999 0.0153809C119.999 0.0153809 117.733 2.60588 114.383 4.50473ZM62.5086 9.97149H58.908L56.877 13.2715H60.4768L62.5086 9.97149Z" fill="#F1F1F1"/>
<path d="M105.334 34.5821C104.947 34.8455 104.403 34.643 104.606 34.0394C105.113 32.5025 107.127 29.3705 107.127 29.3705L112.736 19.4216H108.894C108.711 19.7216 108.321 20.4104 108.321 20.4104C108.143 20.1143 107.611 19.4559 107.393 19.3136C106.454 18.7203 105.077 19.0008 104.127 19.5386C99.9958 21.954 96.9818 26.7263 94.6048 30.4479C94.6048 30.4479 92.1026 34.5849 90.7138 34.8926C89.6294 34.9805 89.7413 33.5198 89.7883 33.1794C90.2075 30.72 91.1812 28.382 92.162 26.2632C94.1573 24.8801 96.4342 23.0688 98.5034 21.0819C102.994 16.7892 106.78 11.926 107.333 10.8393C107.333 10.8393 106.734 10.9602 106.027 10.9819C102.572 15.8011 95.5025 22.8053 93.3592 23.8479C94.3087 21.564 100.443 10.6635 105.664 5.44919L106.485 4.65854C107.756 3.41804 109.072 2.14468 110.097 1.93603C110.206 1.92508 110.345 1.93603 110.466 2.18893C110.511 3.15479 110.152 3.86849 109.739 4.68074L109.161 5.86649C109.161 5.86649 109.98 5.71274 110.518 5.53664C111.142 4.36259 111.833 3.04484 111.578 1.47538C111.493 0.970333 111.128 0.586183 110.65 0.498283C109.093 0.201882 107.395 1.35418 106.03 2.28763L105.975 2.32033C98.9543 7.82024 93.0265 15.7462 87.8436 26.5704C87.4681 26.8554 86.0168 27.1961 85.7702 27.0312C86.282 25.9776 86.9264 24.5612 87.2487 23.0243C87.3045 22.5849 87.3565 22.1352 87.3565 21.6962C87.3565 20.7513 87.1297 19.8624 86.2834 19.248C85.291 18.7539 84.0644 18.9846 83.2373 19.3575C79.5327 20.8944 76.7639 24.693 74.7657 27.8213C73.6911 29.8088 72.6197 31.9374 72.323 34.3749C72.114 36.2847 72.5394 37.5144 73.6254 38.1293C74.742 38.6997 76.1475 38.1068 76.6997 37.8216C80.4528 35.8455 83.0753 31.8828 85.1423 28.26C85.2245 28.2492 86.3531 28.2165 87.2069 27.9966C87.2182 27.9966 87.223 27.9966 87.2419 28.008C87.193 28.1721 86.7518 29.4899 86.7518 29.4899C85.4417 33.3317 84.8358 35.9447 86.0733 37.4924C87.8417 39.677 90.7694 37.4159 93.151 34.4294C92.6398 38.0079 94.4944 38.5682 95.9083 38.294C97.5323 37.8551 99.3421 36.1202 100.182 35.2313C99.9122 36.2739 99.9854 38.1405 101.463 38.3268C102.475 38.514 103.233 37.9632 104.11 37.491C107.255 35.7783 111.021 30.0713 111.998 28.4213H110.716C109.327 30.5217 107.558 33.2751 105.334 34.5821ZM77.1012 34.1999C76.9017 33.9033 76.8356 33.5793 76.829 33.2289C76.7907 31.0763 79.1067 27.2216 80.7413 25.1216H80.7447C81.4296 26.6216 82.9809 27.5858 83.9174 27.9921C82.7544 30.5831 78.7655 36.1319 77.1012 34.1999ZM84.574 26.8338C84.4633 26.9112 82.5071 26.2521 82.129 24.4409C81.8082 22.8815 82.8821 21.663 83.921 21.0489C84.3669 20.6973 85.0387 20.577 85.5314 20.7519C85.9888 21.0599 86.1127 21.6092 86.1127 22.2009C86.1127 22.5639 86.0645 22.9368 86.0221 23.277L86.0127 23.3541C85.6851 24.5712 85.2015 25.7408 84.574 26.8338ZM100.264 33.5084C100.262 33.5084 99.8923 33.8376 99.8923 33.8376C99.3646 34.3095 98.8216 34.8144 98.1661 34.5618C97.985 34.4961 97.8577 34.2548 97.8271 34.0676C97.7972 32.7173 98.4052 31.4661 98.995 30.2477L99.1462 29.9292C100.842 27.0971 102.814 23.7599 105.71 21.4439C106.198 21.0918 106.727 20.796 107.286 21.0267C107.414 21.1473 107.564 21.356 107.564 21.5643C107.564 21.6305 107.505 21.806 107.472 21.8607C106.663 23.1677 105.893 24.5396 105.144 25.8569C103.68 28.4586 102.162 31.1477 100.264 33.5084Z" fill="#F1F1F1"/>
</svg>
